PathFileType	4	(X/Y/Z)	TVC_58_BWA_05_walk_RCNL2025.trc
DataRate	CameraRate	NumFrames	NumMarkers	Units	OrigDataRate	OrigDataStartFrame	OrigNumFrames
100	100	6	27	mm	100	138	366
Frame#	Time	R_Shoulder			L_Shoulder			C7			J_Notch			R_Elbow			L_Elbow			R_Wrist			L_Wrist			R_Asis			L_Asis			R_Psis			L_Psis			Sacral			Thoracic			Sternum			R_Thigh_Lateral			R_Knee_Lateral			R_Shank_Lateral			R_Ankle_Lateral			R_Heel			R_Toe			L_Thigh_Lateral			L_Knee_Lateral			L_Shank_Lateral			L_Ankle_Lateral			L_Heel			L_Toe		
		X1	Y1	Z1	X2	Y2	Z2	X3	Y3	Z3	X4	Y4	Z4	X5	Y5	Z5	X6	Y6	Z6	X7	Y7	Z7	X8	Y8	Z8	X9	Y9	Z9	X10	Y10	Z10	X11	Y11	Z11	X12	Y12	Z12	X13	Y13	Z13	X14	Y14	Z14	X15	Y15	Z15	X16	Y16	Z16	X17	Y17	Z17	X18	Y18	Z18	X19	Y19	Z19	X20	Y20	Z20	X21	Y21	Z21	X22	Y22	Z22	X23	Y23	Z23	X24	Y24	Z24	X25	Y25	Z25	X26	Y26	Z26	X27	Y27	Z27
138	1.37000000	-861.420288	1306.109131	408.491333	-862.697693	1324.964966	51.719875	-920.689331	1389.710205	224.838577	-778.322388	1288.457764	229.992615	-821.399231	987.491760	470.624969	-947.778015	1010.149719	-9.468083	-658.113434	794.977112	471.910614	-895.438202	770.333801	-66.754133	-755.572815	881.926208	369.149597	-744.103149	885.041870	53.941853	-983.268555	923.352234	260.714539	-980.789734	907.986633	152.602997	-982.029144	915.669434	206.658768	-974.638550	1083.530151	215.043793	-676.520691	1059.327026	215.498260	-817.236450	662.964722	439.128143	-905.738403	444.213348	347.003235	-1000.789001	257.363495	384.598999	-1099.238770	80.761429	281.410492	-1154.581055	89.014290	230.028519	-982.068787	44.206844	242.464493	-783.332703	634.304260	-14.043851	-643.893127	472.616699	88.351196	-629.552795	284.695251	39.417099	-609.203979	62.472748	130.313263	-654.417236	51.023487	180.692657	-471.193481	59.248493	160.042099
139	1.38000000	-853.157166	1305.691895	407.820618	-854.539734	1324.149170	50.983627	-912.566162	1389.166260	224.040482	-769.975952	1288.253784	229.247696	-814.898743	986.595642	469.809875	-937.928223	1009.098083	-10.642019	-651.950287	793.743958	471.053497	-886.390167	769.435944	-68.227209	-745.075134	880.894531	367.998627	-734.648499	885.407166	52.898808	-973.275269	922.813721	261.329803	-971.384766	907.430542	152.980896	-972.330017	915.122131	207.155350	-965.569641	1082.720093	214.879700	-667.118591	1059.350098	214.657455	-807.666443	661.834229	438.070282	-898.025940	443.809723	345.982147	-996.186035	258.355804	384.072266	-1097.990723	83.057800	281.710419	-1153.148193	92.379196	230.300003	-981.439148	44.333958	242.624374	-772.873230	634.526184	-13.926114	-633.977356	472.641083	89.011124	-621.353577	285.331665	40.721642	-607.746460	61.881458	131.309296	-653.364380	51.164158	181.355316	-469.718292	55.561527	161.864609
140	1.39000000	-844.790222	1305.557617	407.121033	-846.442871	1323.562134	50.236252	-904.424805	1388.827271	223.233780	-761.613037	1288.276489	228.460312	-808.489380	985.969055	468.936707	-928.124756	1008.268005	-11.781990	-646.200745	792.539581	470.265991	-877.135223	768.825684	-69.775871	-734.431641	880.072632	366.676270	-725.208801	886.151611	51.764339	-963.149109	922.428101	262.068146	-961.949097	907.091248	153.441574	-962.549103	914.759674	207.754860	-956.467896	1082.106934	214.765762	-657.703125	1059.682861	213.755844	-797.791382	660.901184	436.910492	-889.708984	443.509827	344.928467	-991.172302	259.605530	383.468567	-1096.502319	85.724922	281.967133	-1151.354736	96.226288	230.448441	-980.659485	44.466022	242.814911	-762.207153	635.200623	-14.082098	-624.132202	472.823303	89.617149	-611.562622	287.039856	41.941216	-606.433655	61.512905	132.003983	-652.466187	51.508209	181.720551	-468.395386	52.423672	163.269165
141	1.40000000	-836.331787	1305.713379	406.396820	-838.408325	1323.219238	49.483574	-896.270020	1388.696411	222.423584	-753.239075	1288.530273	227.638138	-802.155640	985.630249	468.007141	-918.387756	1007.678162	-12.877430	-640.862946	791.375977	469.557938	-867.670929	768.515198	-71.375759	-723.691833	879.510925	365.204193	-715.802002	887.258240	50.555004	-952.912170	922.190369	262.888916	-952.483032	906.978088	153.950912	-952.697601	914.584229	208.419914	-947.339355	1081.696167	214.688477	-648.304138	1060.348145	212.807968	-787.629211	660.211304	435.690033	-880.750061	443.320160	343.928040	-985.752502	261.150635	382.853851	-1094.714722	88.797951	282.181396	-1149.102661	100.598595	230.447784	-979.731628	44.577995	243.037338	-751.422852	636.273682	-14.504081	-614.458191	473.122711	90.142921	-600.569519	289.163361	43.145786	-605.223999	61.327477	132.425919	-651.659851	52.007755	181.837433	-467.213165	49.858700	164.289001
142	1.41000000	-827.797974	1306.158203	405.652161	-830.435120	1323.129395	48.730545	-888.106689	1388.771973	221.614227	-744.859497	1289.014038	226.789307	-795.883240	985.588684	467.025116	-908.733765	1007.340088	-13.920044	-635.930542	790.262939	468.939560	-857.996490	768.509369	-73.002659	-712.911682	879.252075	363.610901	-706.439331	888.696655	49.290447	-942.591248	922.090210	263.745911	-942.985840	907.093872	154.469208	-942.788544	914.592041	209.107559	-938.190369	1081.488525	214.632172	-638.950073	1061.355469	211.828720	-777.215271	659.806458	434.460693	-871.110168	443.237640	343.075653	-979.923645	263.016449	382.298889	-1092.557251	92.304901	282.366486	-1146.281128	105.528984	230.290649	-978.666443	44.641220	243.292328	-740.601624	637.679871	-15.169526	-605.076172	473.484070	90.559669	-589.277466	290.913574	44.326012	-604.102661	61.278797	132.618851	-650.913635	52.606422	181.763947	-466.174469	47.852612	164.994888
143	1.42000000	-819.208191	1306.881958	404.891144	-822.520081	1323.294678	47.981125	-879.939880	1389.047363	220.809280	-736.479980	1289.720459	225.922165	-789.659119	985.844482	465.996582	-899.175171	1007.256958	-14.903809	-631.392181	789.207642	468.421204	-848.112854	768.805115	-74.633247	-702.151550	879.326294	361.930237	-697.124207	890.426392	47.993622	-932.217468	922.112488	264.589630	-933.457031	907.433960	154.953156	-932.837250	914.773224	209.771393	-929.028198	1081.479980	214.579819	-629.665222	1062.698853	210.833252	-766.597656	659.721497	433.282196	-860.748718	443.248260	342.464111	-973.669189	265.216492	381.873474	-1089.947632	96.263992	282.548431	-1142.771973	111.038078	229.992722	-977.481445	44.627930	243.578293	-729.812988	639.353210	-16.046436	-596.120239	473.846069	90.838310	-578.862305	291.640503	45.352440	-603.072205	61.320984	132.634689	-650.217468	53.247032	181.559875	-465.287659	46.359997	165.469772
